<svg width="20" height="20" viewBox="0 0 13 13" fill="none" xmlns="http://www.w3.org/2000/svg">
<path d="M3.70005 9.19616C4.81843 9.19616 5.72505 8.29036 5.72505 7.173C5.72505 6.05564 4.81843 5.14984 3.70005 5.14984C2.58167 5.14984 1.67505 6.05564 1.67505 7.173C1.67505 8.29036 2.58167 9.19616 3.70005 9.19616Z" stroke="#757575" stroke-width="0.7" stroke-linecap="round" stroke-linejoin="round"/>
<path d="M9.10007 4.70025C10.2185 4.70025 11.1251 3.79445 11.1251 2.67709C11.1251 1.55973 10.2185 0.653931 9.10007 0.653931C7.9817 0.653931 7.07507 1.55973 7.07507 2.67709C7.07507 3.79445 7.9817 4.70025 9.10007 4.70025Z" stroke="#757575" stroke-width="0.7" stroke-linecap="round" stroke-linejoin="round"/>
<path d="M6.17502 7.3978C6.17502 6.49862 6.85002 4.70026 9.10002 4.70026C11.35 4.70026 12.025 6.49862 12.025 7.3978M0.775024 11.8937C0.775024 10.9945 1.45002 9.19617 3.70002 9.19617C5.95002 9.19617 6.62502 10.9945 6.62502 11.8937" stroke="#757575" stroke-width="0.7" stroke-linecap="round" stroke-linejoin="round"/>
</svg>
