<svg width="20" height="20" viewBox="0 0 12 12" fill="none" xmlns="http://www.w3.org/2000/svg">
<path d="M6 3.56094C5.6477 3.56094 5.30332 3.66532 5.01039 3.86087C4.71747 4.05642 4.48916 4.33436 4.35434 4.65954C4.21952 4.98473 4.18425 5.34255 4.25298 5.68777C4.32171 6.03298 4.49135 6.35008 4.74047 6.59897C4.98958 6.84785 5.30697 7.01735 5.6525 7.08601C5.99802 7.15468 6.35617 7.11944 6.68165 6.98474C7.00714 6.85005 7.28533 6.62195 7.48106 6.32929C7.67678 6.03663 7.78125 5.69255 7.78125 5.34058C7.78125 4.86859 7.59358 4.41593 7.25953 4.08219C6.92548 3.74844 6.47242 3.56094 6 3.56094ZM6 6.55822C5.75895 6.55822 5.52332 6.48681 5.3229 6.35301C5.12248 6.21921 4.96627 6.02904 4.87402 5.80655C4.78178 5.58405 4.75764 5.33923 4.80467 5.10303C4.85169 4.86683 4.96777 4.64986 5.13821 4.47957C5.30866 4.30928 5.52582 4.19331 5.76223 4.14633C5.99865 4.09935 6.2437 4.12346 6.4664 4.21562C6.68909 4.30778 6.87944 4.46385 7.01335 4.66409C7.14727 4.86433 7.21875 5.09975 7.21875 5.34058C7.21875 5.66352 7.09035 5.97323 6.86179 6.20158C6.63323 6.42993 6.32323 6.55822 6 6.55822ZM6 1.31299C4.93123 1.31423 3.90658 1.73896 3.15085 2.49401C2.39511 3.24906 1.96999 4.27277 1.96875 5.34058C1.96875 6.78817 2.64094 8.32568 3.91266 9.78685C4.48665 10.4496 5.13265 11.0465 5.83875 11.5665C5.88602 11.5995 5.94231 11.6172 6 11.6172C6.05769 11.6172 6.11398 11.5995 6.16125 11.5665C6.86735 11.0465 7.51335 10.4496 8.08734 9.78685C9.35906 8.32568 10.0312 6.78957 10.0312 5.34058C10.03 4.27277 9.60489 3.24906 8.84915 2.49401C8.09342 1.73896 7.06877 1.31423 6 1.31299ZM6 10.9844C5.29688 10.442 2.53125 8.13273 2.53125 5.34058C2.53125 4.42144 2.89671 3.53995 3.54722 2.89003C4.19774 2.2401 5.08003 1.87498 6 1.87498C6.91997 1.87498 7.80226 2.2401 8.45278 2.89003C9.10329 3.53995 9.46875 4.42144 9.46875 5.34058C9.46875 8.13273 6.70312 10.442 6 10.9844Z" fill="#757575"/>
</svg>
