<svg width="18" height="21" viewBox="0 0 18 21" fill="none" xmlns="http://www.w3.org/2000/svg">
<path d="M2.38889 20.5C1.86945 20.5 1.42461 20.304 1.05439 19.912C0.684168 19.52 0.499372 19.0493 0.500002 18.5V4.5C0.500002 3.95 0.685113 3.479 1.05533 3.087C1.42556 2.695 1.87008 2.49934 2.38889 2.5H3.33333V1.5C3.33333 1.21667 3.424 0.979003 3.60533 0.787003C3.78667 0.595003 4.01082 0.499337 4.27778 0.500003C4.54537 0.500003 4.76983 0.596004 4.95117 0.788003C5.1325 0.980003 5.22285 1.21734 5.22222 1.5V2.5H12.7778V1.5C12.7778 1.21667 12.8684 0.979003 13.0498 0.787003C13.2311 0.595003 13.4553 0.499337 13.7222 0.500003C13.9898 0.500003 14.2143 0.596004 14.3956 0.788003C14.5769 0.980003 14.6673 1.21734 14.6667 1.5V2.5H15.6111C16.1306 2.5 16.5754 2.696 16.9456 3.088C17.3158 3.48 17.5006 3.95067 17.5 4.5V18.5C17.5 19.05 17.3149 19.521 16.9447 19.913C16.5744 20.305 16.1299 20.5007 15.6111 20.5H2.38889ZM2.38889 18.5H15.6111V8.5H2.38889V18.5Z" fill="white"/>
</svg>
