<svg width="20" height="21" viewBox="0 0 20 21" fill="none" xmlns="http://www.w3.org/2000/svg">
<path d="M8.91225 0.441134C9.20623 0.157845 9.59544 0 10 0C10.4046 0 10.7938 0.157845 11.0878 0.441134L18.7574 7.83096C19.2324 8.28768 19.5 8.92516 19.5 9.59006V18.5792C19.5 19.2213 19.2498 19.837 18.8044 20.291C18.359 20.745 17.7549 21 17.125 21H13.9583C13.6463 21 13.3373 20.9373 13.0491 20.8156C12.7608 20.6938 12.499 20.5154 12.2784 20.2904C12.0578 20.0654 11.8829 19.7984 11.7637 19.5045C11.6444 19.2106 11.5831 18.8956 11.5833 18.5776V14.543C11.5833 14.329 11.4999 14.1237 11.3515 13.9724C11.203 13.8211 11.0016 13.7361 10.7917 13.7361H9.20833C8.99837 13.7361 8.79701 13.8211 8.64854 13.9724C8.50007 14.1237 8.41667 14.329 8.41667 14.543V18.5776C8.41667 19.2196 8.16644 19.8354 7.72105 20.2894C7.27565 20.7433 6.67156 20.9984 6.04167 20.9984H2.875C2.24511 20.9984 1.64102 20.7433 1.19562 20.2894C0.750223 19.8354 0.5 19.2196 0.5 18.5776V9.58845C0.5 8.92354 0.769167 8.28607 1.24417 7.82935L8.91225 0.437907V0.441134ZM10 1.61279L2.33033 9.00423C2.25247 9.07947 2.19043 9.17006 2.14797 9.27048C2.10551 9.37091 2.08352 9.47909 2.08333 9.58845V18.5776C2.08333 18.7916 2.16674 18.9969 2.31521 19.1482C2.46367 19.2995 2.66504 19.3845 2.875 19.3845H6.04167C6.25163 19.3845 6.45299 19.2995 6.60146 19.1482C6.74993 18.9969 6.83333 18.7916 6.83333 18.5776V14.543C6.83333 13.9009 7.08356 13.2852 7.52895 12.8312C7.97435 12.3772 8.57844 12.1222 9.20833 12.1222H10.7917C11.4216 12.1222 12.0256 12.3772 12.471 12.8312C12.9164 13.2852 13.1667 13.9009 13.1667 14.543V18.5776C13.1667 18.7916 13.2501 18.9969 13.3985 19.1482C13.547 19.2995 13.7484 19.3845 13.9583 19.3845H17.125C17.335 19.3845 17.5363 19.2995 17.6848 19.1482C17.8333 18.9969 17.9167 18.7916 17.9167 18.5776V9.58845C17.9167 9.47882 17.8948 9.37033 17.8523 9.26961C17.8099 9.16889 17.7477 9.07804 17.6697 9.00262L10 1.61279Z" fill="white"/>
</svg>
