<svg width="13" height="19" viewBox="0 0 13 19" fill="none" xmlns="http://www.w3.org/2000/svg">
<path d="M2.56663 19V10.3075C1.88663 10.0858 1.31649 9.6425 0.856227 8.9775C0.39596 8.3125 0.166094 7.53667 0.166627 6.65V6.48907e-07H1.76663V6.65H2.56663V6.48907e-07H4.16663V6.65H4.96663V6.48907e-07H6.56663V6.65C6.56663 7.53667 6.33649 8.3125 5.87623 8.9775C5.41596 9.6425 4.84609 10.0858 4.16663 10.3075V19H2.56663ZM10.5666 19V11.4H8.16663V4.75C8.16663 3.43583 8.55676 2.31547 9.33703 1.3889C10.1173 0.462334 11.0605 -0.000632684 12.1666 6.48907e-07V19H10.5666Z" fill="white"/>
</svg>
