<svg width="20" height="19" viewBox="0 0 20 19" fill="none" xmlns="http://www.w3.org/2000/svg">
<path d="M18.3556 19L11.7056 12.35C11.1778 12.7722 10.5709 13.1065 9.88476 13.3528C9.19865 13.5991 8.46856 13.7222 7.69449 13.7222C5.77689 13.7222 4.15415 13.0579 2.82626 11.7293C1.49837 10.4007 0.834078 8.778 0.833374 6.86111C0.833374 4.94352 1.49767 3.32078 2.82626 1.99289C4.15486 0.665 5.7776 0.000703704 7.69449 0C9.61208 0 11.2348 0.664296 12.5627 1.99289C13.8906 3.32148 14.5549 4.94422 14.5556 6.86111C14.5556 7.63519 14.4324 8.36528 14.1862 9.05139C13.9399 9.7375 13.6056 10.3444 13.1834 10.8722L19.8334 17.5222L18.3556 19ZM7.69449 11.6111C9.01393 11.6111 10.1356 11.1491 11.0596 10.2252C11.9836 9.3012 12.4452 8.17985 12.4445 6.86111C12.4445 5.54167 11.9825 4.41996 11.0585 3.496C10.1346 2.57204 9.01323 2.11041 7.69449 2.11111C6.37504 2.11111 5.25334 2.57309 4.32937 3.49706C3.40541 4.42102 2.94378 5.54237 2.94449 6.86111C2.94449 8.18056 3.40647 9.30226 4.33043 10.2262C5.25439 11.1502 6.37574 11.6118 7.69449 11.6111Z" fill="white"/>
</svg>
