<svg width="16" height="16" viewBox="0 0 16 16" fill="none" xmlns="http://www.w3.org/2000/svg">
<path d="M8 0C6.41775 0 4.87103 0.469192 3.55544 1.34824C2.23985 2.22729 1.21447 3.47672 0.608967 4.93853C0.00346615 6.40034 -0.15496 8.00887 0.153721 9.56072C0.462403 11.1126 1.22433 12.538 2.34315 13.6569C3.46197 14.7757 4.88743 15.5376 6.43928 15.8463C7.99113 16.155 9.59966 15.9965 11.0615 15.391C12.5233 14.7855 13.7727 13.7602 14.6518 12.4446C15.5308 11.129 16 9.58225 16 8C15.9977 5.87898 15.1541 3.8455 13.6543 2.34572C12.1545 0.845932 10.121 0.00232928 8 0ZM8 15.36C6.54433 15.36 5.12135 14.9283 3.91101 14.1196C2.70066 13.3109 1.75731 12.1614 1.20025 10.8165C0.643189 9.47168 0.497437 7.99183 0.781424 6.56413C1.06541 5.13643 1.76638 3.82501 2.7957 2.79569C3.82501 1.76638 5.13644 1.06541 6.56414 0.78142C7.99184 0.497433 9.47169 0.643185 10.8166 1.20025C12.1614 1.75731 13.3109 2.70066 14.1196 3.911C14.9283 5.12135 15.36 6.54433 15.36 8C15.3579 9.95134 14.5818 11.8222 13.202 13.202C11.8222 14.5818 9.95135 15.3579 8 15.36ZM12.8 8C12.8 8.08487 12.7663 8.16626 12.7063 8.22627C12.6463 8.28628 12.5649 8.32 12.48 8.32H8C7.91513 8.32 7.83374 8.28628 7.77373 8.22627C7.71372 8.16626 7.68 8.08487 7.68 8V3.52C7.68 3.43513 7.71372 3.35374 7.77373 3.29373C7.83374 3.23371 7.91513 3.2 8 3.2C8.08487 3.2 8.16626 3.23371 8.22628 3.29373C8.28629 3.35374 8.32 3.43513 8.32 3.52V7.68H12.48C12.5649 7.68 12.6463 7.71371 12.7063 7.77372C12.7663 7.83374 12.8 7.91513 12.8 8Z" fill="white"/>
</svg>
