<svg width="15" height="12" viewBox="0 0 15 12" fill="none" xmlns="http://www.w3.org/2000/svg">
<path d="M14.5312 0C14.6556 0 14.7748 0.0632142 14.8627 0.175736C14.9506 0.288258 15 0.44087 15 0.6C15 0.75913 14.9506 0.911742 14.8627 1.02426C14.7748 1.13679 14.6556 1.2 14.5312 1.2H0.46875C0.34443 1.2 0.225201 1.13679 0.137294 1.02426C0.0493861 0.911742 0 0.75913 0 0.6C0 0.44087 0.0493861 0.288258 0.137294 0.175736C0.225201 0.0632142 0.34443 0 0.46875 0H14.5312ZM14.5312 3.6C14.6556 3.6 14.7748 3.66321 14.8627 3.77574C14.9506 3.88826 15 4.04087 15 4.2C15 4.35913 14.9506 4.51174 14.8627 4.62426C14.7748 4.73679 14.6556 4.8 14.5312 4.8H0.46875C0.34443 4.8 0.225201 4.73679 0.137294 4.62426C0.0493861 4.51174 0 4.35913 0 4.2C0 4.04087 0.0493861 3.88826 0.137294 3.77574C0.225201 3.66321 0.34443 3.6 0.46875 3.6H14.5312ZM15 7.8C15 7.64087 14.9506 7.48826 14.8627 7.37574C14.7748 7.26321 14.6556 7.2 14.5312 7.2H0.46875C0.34443 7.2 0.225201 7.26321 0.137294 7.37574C0.0493861 7.48826 0 7.64087 0 7.8C0 7.95913 0.0493861 8.11174 0.137294 8.22427C0.225201 8.33679 0.34443 8.4 0.46875 8.4H14.5312C14.6556 8.4 14.7748 8.33679 14.8627 8.22427C14.9506 8.11174 15 7.95913 15 7.8ZM14.5312 10.8C14.6556 10.8 14.7748 10.8632 14.8627 10.9757C14.9506 11.0883 15 11.2409 15 11.4C15 11.5591 14.9506 11.7117 14.8627 11.8243C14.7748 11.9368 14.6556 12 14.5312 12H5.15625C5.03193 12 4.9127 11.9368 4.82479 11.8243C4.73689 11.7117 4.6875 11.5591 4.6875 11.4C4.6875 11.2409 4.73689 11.0883 4.82479 10.9757C4.9127 10.8632 5.03193 10.8 5.15625 10.8H14.5312Z" fill="white"/>
</svg>
