<svg width="15" height="20" viewBox="0 0 15 20" fill="none" xmlns="http://www.w3.org/2000/svg">
<path d="M1.40625 8.41632V17.9166C1.40625 18.0415 1.51125 18.1428 1.64062 18.1428H13.3594C13.4215 18.1428 13.4811 18.119 13.5251 18.0766C13.5691 18.0341 13.5938 17.9766 13.5938 17.9166V8.41632C13.5938 8.35633 13.5691 8.29879 13.5251 8.25637C13.4811 8.21395 13.4215 8.19012 13.3594 8.19012H11.0156C10.8291 8.19012 10.6503 8.11863 10.5184 7.99137C10.3866 7.8641 10.3125 7.6915 10.3125 7.51153C10.3125 7.33155 10.3866 7.15895 10.5184 7.03169C10.6503 6.90443 10.8291 6.83294 11.0156 6.83294H13.3594C14.265 6.83294 15 7.54229 15 8.41632V17.9166C15 18.3366 14.8271 18.7393 14.5195 19.0362C14.2118 19.3332 13.7945 19.5 13.3594 19.5H1.64062C1.2055 19.5 0.788205 19.3332 0.480528 19.0362C0.172851 18.7393 0 18.3366 0 17.9166V8.41632C0 7.54229 0.735 6.83294 1.64062 6.83294H3.98438C4.17086 6.83294 4.3497 6.90443 4.48156 7.03169C4.61342 7.15895 4.6875 7.33155 4.6875 7.51153C4.6875 7.6915 4.61342 7.8641 4.48156 7.99137C4.3497 8.11863 4.17086 8.19012 3.98438 8.19012H1.64062C1.57846 8.19012 1.51885 8.21395 1.4749 8.25637C1.43094 8.29879 1.40625 8.35633 1.40625 8.41632ZM7.99687 0.698457L11.0437 3.63903C11.1363 3.72197 11.204 3.82747 11.2396 3.94441C11.2752 4.06136 11.2775 4.18541 11.2463 4.30351C11.215 4.42161 11.1513 4.52937 11.0618 4.61545C10.9724 4.70153 10.8606 4.76274 10.7381 4.79263C10.6159 4.82287 10.4875 4.82076 10.3664 4.78653C10.2453 4.7523 10.136 4.68721 10.05 4.5981L8.20312 2.81567V12.4879C8.20312 12.6678 8.12905 12.8405 7.99718 12.9677C7.86532 13.095 7.68648 13.1665 7.5 13.1665C7.31352 13.1665 7.13468 13.095 7.00282 12.9677C6.87095 12.8405 6.79688 12.6678 6.79688 12.4879V2.81567L4.95 4.5981C4.81663 4.71791 4.64033 4.78314 4.45816 4.78011C4.27599 4.77707 4.10213 4.70599 3.97312 4.58182C3.84446 4.45731 3.77081 4.28952 3.76767 4.11371C3.76452 3.93789 3.83212 3.76774 3.95625 3.63903L7.00313 0.698457C7.13496 0.571379 7.31367 0.5 7.5 0.5C7.68633 0.5 7.86504 0.571379 7.99687 0.698457Z" fill="white"/>
</svg>
