<svg width="14" height="18" viewBox="0 0 14 18" fill="none" xmlns="http://www.w3.org/2000/svg">
<path d="M7 3.99999C6.40666 3.99999 5.82664 4.17594 5.33329 4.50558C4.83994 4.83523 4.45542 5.30376 4.22836 5.85194C4.0013 6.40012 3.94189 7.00332 4.05764 7.58526C4.1734 8.1672 4.45912 8.70175 4.87868 9.1213C5.29824 9.54086 5.83279 9.82658 6.41473 9.94234C6.99667 10.0581 7.59987 9.99868 8.14805 9.77162C8.69623 9.54456 9.16477 9.16004 9.49441 8.6667C9.82405 8.17335 10 7.59333 10 6.99999C10 6.20434 9.68393 5.44128 9.12132 4.87867C8.55871 4.31606 7.79565 3.99999 7 3.99999ZM7 9.33332C6.53851 9.33332 6.08738 9.19647 5.70367 8.94008C5.31995 8.68369 5.02089 8.31927 4.84428 7.89291C4.66768 7.46655 4.62147 6.9974 4.7115 6.54478C4.80153 6.09216 5.02376 5.6764 5.35008 5.35007C5.67641 5.02375 6.09217 4.80152 6.54479 4.71149C6.99741 4.62146 7.46657 4.66767 7.89293 4.84427C8.31929 5.02088 8.68371 5.31995 8.9401 5.70366C9.19649 6.08737 9.33333 6.5385 9.33333 6.99999C9.33333 7.30641 9.27298 7.60982 9.15572 7.89291C9.03846 8.17601 8.86659 8.43323 8.64992 8.6499C8.43325 8.86657 8.17602 9.03844 7.89293 9.1557C7.60984 9.27296 7.30642 9.33332 7 9.33332ZM7 0C5.14409 0.00198528 3.36477 0.740119 2.05245 2.05244C0.740121 3.36476 0.00198528 5.14408 0 6.99999C0 9.53498 1.18083 12.2325 3.41667 14.8016C4.42813 15.9704 5.56653 17.023 6.81083 17.94C6.8668 17.979 6.93341 18 7.00167 18C7.06992 18 7.13654 17.979 7.1925 17.94C8.43564 17.0228 9.57291 15.9702 10.5833 14.8016C12.8175 12.2325 14 9.53498 14 6.99999C13.998 5.14408 13.2599 3.36476 11.9476 2.05244C10.6352 0.740119 8.85591 0.00198528 7 0ZM10.0917 14.3525C9.16037 15.419 8.12465 16.3897 7 17.25C5.87519 16.3887 4.83946 15.4169 3.90833 14.3491C2.42917 12.65 0.666667 9.99165 0.666667 6.99999C0.666667 5.32029 1.33393 3.70938 2.52166 2.52165C3.70939 1.33392 5.3203 0.666665 7 0.666665C8.6797 0.666665 10.2906 1.33392 11.4783 2.52165C12.6661 3.70938 13.3333 5.32029 13.3333 6.99999C13.3333 9.99165 11.5708 12.65 10.0917 14.3525Z" fill="white"/>
</svg>
